<?xml version="1.0" standalone="no"?>
<!DOCTYPE svg PUBLIC "-//W3C//DTD SVG 20010904//EN"
 "http://www.w3.org/TR/2001/REC-SVG-20010904/DTD/svg10.dtd">
<svg version="1.0" xmlns="http://www.w3.org/2000/svg"
 width="672.000000pt" height="672.000000pt" viewBox="0 0 672.000000 672.000000"
 preserveAspectRatio="xMidYMid meet">
<metadata>
Created by potrace 1.14, written by Peter Selinger 2001-2017
</metadata>
<g transform="translate(0.000000,672.000000) scale(0.100000,-0.100000)"
fill="#000000" stroke="none">
<path d="M0 3360 l0 -3280 3360 0 3360 0 0 3280 0 3280 -3360 0 -3360 0 0
-3280z m3337 2345 c102 -50 157 -143 157 -265 1 -87 -22 -144 -80 -204 -63
-65 -106 -81 -214 -81 -109 0 -148 15 -212 82 -55 57 -78 115 -78 201 0 77 14
122 56 184 76 110 240 146 371 83z m-1792 -1230 l0 -1200 -292 -3 -293 -2 0
1205 0 1205 293 -2 292 -3 0 -1200z m985 780 c0 -389 -6 -493 -24 -385 -10 61
-63 223 -101 306 -38 84 -110 197 -167 266 -71 86 -213 179 -318 209 -25 7
-49 16 -54 21 -6 4 142 8 327 8 l337 0 0 -425z m2081 -325 c203 -524 288 -754
286 -775 -5 -39 -265 -897 -275 -907 -5 -5 -31 51 -60 124 -82 214 -371 963
-636 1651 -135 351 -246 643 -246 648 0 6 127 8 321 7 l322 -3 288 -745z
m1149 -455 l0 -1205 -292 2 -293 3 -3 1190 c-1 655 0 1196 3 1203 3 9 72 12
295 12 l290 0 0 -1205z m-3670 30 c0 -294 -3 -535 -8 -535 -4 0 -13 26 -21 57
-19 85 -65 195 -112 268 -53 85 -127 149 -211 183 -37 15 -68 30 -68 33 0 3
19 12 43 19 150 44 277 204 337 423 14 48 28 87 32 87 5 0 8 -241 8 -535z
m1390 -375 l0 -860 -280 0 -280 0 0 860 0 860 280 0 280 0 0 -860z m-850 -401
c0 -351 -3 -451 -13 -454 -6 -3 -179 -4 -382 -3 l-370 3 65 22 c173 57 275
116 375 217 136 136 246 360 291 588 9 48 21 85 25 82 5 -3 9 -208 9 -455z
m3130 -894 c0 -13 -273 -15 -2400 -15 -2127 0 -2400 2 -2400 15 0 13 273 15
2400 15 2127 0 2400 -2 2400 -15z m-3762 -457 l2 -298 30 0 c17 0 30 -4 30
-10 0 -6 -30 -10 -70 -10 -69 0 -70 0 -70 26 l0 26 -37 -32 c-32 -29 -41 -32
-84 -28 -116 12 -200 134 -169 247 13 50 63 109 107 127 63 27 147 10 172 -33
7 -13 10 23 11 125 l0 142 -36 0 c-22 0 -33 4 -29 10 4 7 35 10 73 8 l67 -3 3
-297z m-548 217 c0 -41 -3 -75 -8 -75 -4 0 -16 19 -27 43 -32 68 -71 87 -176
87 l-89 0 0 -125 0 -125 49 0 c59 0 85 19 104 75 8 22 18 40 23 40 12 0 17
-246 5 -258 -5 -5 -15 11 -26 42 -19 59 -50 81 -115 81 l-40 0 0 -151 0 -151
103 4 c87 3 107 7 135 27 32 22 72 86 72 115 0 8 5 18 10 21 6 4 10 -28 10
-89 l0 -96 -254 0 c-149 0 -257 4 -261 9 -3 6 16 11 42 13 l48 3 0 280 0 280
-47 3 c-27 2 -48 7 -48 13 0 5 98 9 245 9 l245 0 0 -75z m2590 61 c29 -36 -13
-92 -57 -75 -26 9 -32 56 -11 77 16 16 53 15 68 -2z m-320 -172 l0 -54 60 0
c33 0 60 -4 60 -10 0 -6 -27 -10 -60 -10 l-60 0 0 -154 c0 -129 3 -157 16
-171 24 -23 56 -15 79 22 22 35 35 42 35 17 0 -8 -14 -29 -30 -46 -28 -28 -35
-30 -82 -26 -40 4 -57 12 -75 32 -22 26 -23 35 -23 177 l0 149 -29 0 c-17 0
-33 5 -36 10 -4 6 8 10 29 10 l36 0 0 54 0 54 40 0 40 1 0 -55z m-734 -60 c70
-33 82 -124 16 -124 -40 0 -51 15 -44 62 6 46 -5 58 -56 58 -49 0 -68 -14 -87
-64 -25 -64 -18 -204 11 -243 51 -68 151 -52 200 33 7 10 15 16 19 12 13 -12
-29 -70 -65 -89 -83 -45 -211 -4 -255 82 -9 16 -15 55 -15 92 0 52 5 71 29
108 50 80 163 113 247 73z m404 1 c47 -25 55 -48 60 -200 l5 -140 33 0 c36 0
41 -9 13 -25 -34 -18 -80 -12 -107 15 -24 24 -25 24 -44 5 -38 -38 -142 -38
-181 1 -25 25 -25 79 1 111 12 16 44 33 87 46 101 32 113 43 113 102 0 58 -18
80 -64 80 -42 0 -60 -20 -51 -58 7 -33 -18 -67 -42 -58 -8 3 -18 6 -23 6 -15
0 -21 36 -11 64 23 59 141 87 211 51z m1120 -7 c24 -13 57 -40 74 -61 42 -52
48 -143 14 -202 -54 -92 -169 -129 -258 -83 -53 27 -105 92 -114 142 -14 75
35 165 113 206 49 26 117 25 171 -2z m550 7 c55 -28 60 -46 60 -202 l0 -143
30 0 c17 0 30 -4 30 -10 0 -6 -40 -10 -99 -10 -56 0 -103 4 -106 10 -4 6 8 10
29 10 l36 0 0 148 c0 177 -8 198 -72 189 -22 -3 -51 -16 -65 -29 -43 -39 -53
-78 -53 -198 l0 -110 30 0 c17 0 30 -4 30 -10 0 -6 -40 -10 -100 -10 -60 0
-100 4 -100 10 0 6 14 10 30 10 l30 0 0 165 0 165 -30 0 c-16 0 -30 5 -30 10
0 6 30 10 70 10 l70 0 0 -36 0 -37 22 28 c40 52 129 71 188 40z m-2770 -145
c0 -93 4 -159 12 -175 24 -53 91 -41 135 24 21 31 23 46 23 157 l0 124 -30 0
c-16 0 -30 5 -30 10 0 7 27 10 73 8 l72 -3 3 -172 2 -173 30 0 c17 0 30 -4 30
-10 0 -6 -30 -10 -70 -10 l-70 0 0 38 -1 37 -20 -28 c-41 -54 -107 -71 -173
-43 -60 25 -66 44 -66 203 l0 143 -29 0 c-17 0 -33 5 -36 10 -4 6 22 10 69 10
l76 0 0 -150z m1758 -27 l2 -173 30 0 c17 0 30 -4 30 -10 0 -6 -42 -10 -105
-10 -63 0 -105 4 -105 10 0 6 14 10 30 10 l30 0 0 165 0 165 -30 0 c-16 0 -30
5 -30 10 0 7 27 10 73 8 l72 -3 3 -172z m1712 -328 c0 -13 -273 -15 -2400 -15
-2127 0 -2400 2 -2400 15 0 13 273 15 2400 15 2127 0 2400 -2 2400 -15z
m-4656 -156 c30 -43 -20 -93 -63 -63 -23 17 -28 53 -9 72 19 19 55 14 72 -9z
m1181 4 c4 -10 33 -94 65 -188 32 -93 64 -185 71 -204 12 -34 13 -32 88 185
l76 219 98 3 c62 2 97 -1 97 -8 0 -5 -20 -10 -45 -10 l-45 0 0 -285 0 -285 46
0 c27 0 43 -4 39 -10 -4 -6 -62 -10 -141 -10 -83 0 -134 4 -134 10 0 6 20 10
45 10 l45 0 -1 263 c0 144 -3 258 -5 252 -2 -5 -44 -125 -93 -265 -49 -140
-93 -254 -97 -252 -5 2 -48 114 -95 250 -47 136 -88 254 -92 262 -3 8 -6 -103
-6 -247 l-1 -263 45 0 c25 0 45 -4 45 -10 0 -13 -197 -13 -205 -1 -3 6 16 11
42 13 l48 3 3 283 2 282 -50 0 c-32 0 -49 4 -45 10 3 6 48 10 100 10 79 0 94
-3 100 -17z m1550 -7 c30 -45 -20 -91 -64 -59 -23 16 -28 52 -9 71 20 20 56
14 73 -12z m-325 -162 l0 -54 60 0 c33 0 60 -4 60 -10 0 -6 -27 -10 -60 -10
l-60 0 0 -149 c0 -129 2 -152 18 -171 26 -32 70 -21 85 20 13 33 27 40 27 13
-2 -84 -170 -98 -200 -17 -6 14 -10 88 -10 165 l0 139 -30 0 c-16 0 -30 5 -30
10 0 6 14 10 30 10 30 0 30 1 30 53 l0 52 40 1 40 1 0 -53z m-1915 -59 c17 -9
37 -26 44 -38 6 -13 12 -82 13 -162 l3 -140 33 -3 c18 -2 30 -8 27 -13 -8 -12
-205 -12 -205 1 0 6 14 10 30 10 l30 0 0 152 c0 127 -3 154 -17 170 -21 23
-60 23 -100 -2 -54 -33 -67 -70 -67 -200 l-1 -115 33 -3 c18 -2 30 -8 27 -13
-8 -12 -205 -12 -205 1 0 6 14 10 30 10 l30 0 0 165 0 165 -30 0 c-16 0 -30 5
-30 10 0 6 30 10 70 10 l70 0 0 -37 0 -38 23 27 c46 56 126 74 192 43z m1576
-8 c27 -14 57 -42 77 -73 31 -44 34 -55 30 -106 -3 -41 -12 -67 -32 -97 -32
-46 -112 -91 -163 -91 -73 0 -151 53 -184 125 -25 54 -24 92 6 152 52 103 166
142 266 90z m1156 -11 c48 -32 93 -111 93 -160 -1 -96 -104 -196 -203 -196
-51 0 -131 45 -163 92 -24 35 -29 51 -29 104 0 53 4 69 30 105 64 91 182 115
272 55z m528 19 c17 -9 37 -26 44 -38 6 -13 12 -82 13 -162 l3 -140 33 -3 c18
-2 30 -8 27 -13 -8 -12 -205 -12 -205 1 0 6 14 10 30 10 l30 0 0 152 c0 127
-3 154 -17 170 -21 23 -60 23 -100 -2 -54 -33 -67 -70 -67 -200 l-1 -115 33
-3 c18 -2 30 -8 27 -13 -8 -12 -205 -12 -205 1 0 6 14 10 30 10 l30 0 0 165 0
165 -30 0 c-16 0 -30 5 -30 10 0 6 30 10 70 10 l70 0 0 -37 0 -38 23 27 c46
56 126 74 192 43z m-3745 -170 l0 -175 30 0 c17 0 30 -4 30 -10 0 -6 -40 -10
-99 -10 -56 0 -103 4 -106 10 -4 6 8 10 29 10 l36 0 0 165 0 165 -29 0 c-17 0
-33 5 -36 10 -4 6 22 10 69 10 l76 0 0 -175z m2730 0 l0 -175 30 0 c17 0 30
-4 30 -10 0 -6 -40 -10 -99 -10 -56 0 -103 4 -106 10 -4 6 8 10 29 10 l36 0 0
165 0 165 -29 0 c-17 0 -33 5 -36 10 -4 6 22 10 69 10 l76 0 0 -175z m1920
-320 c0 -13 -273 -15 -2400 -15 -2127 0 -2400 2 -2400 15 0 13 273 15 2400 15
2127 0 2400 -2 2400 -15z"/>
<path d="M1757 2408 c-9 -7 -21 -26 -27 -41 -14 -40 -13 -216 3 -247 33 -65
124 -65 161 0 16 27 20 52 20 125 1 129 -28 175 -106 175 -19 0 -42 -6 -51
-12z"/>
<path d="M3314 2234 c-57 -25 -84 -55 -84 -94 0 -43 21 -62 65 -58 53 4 77 44
73 121 l-3 54 -51 -23z"/>
<path d="M4355 2396 c-30 -30 -39 -76 -33 -179 5 -99 23 -133 75 -143 46 -9
81 4 107 39 46 62 29 269 -24 297 -36 19 -99 12 -125 -14z"/>
<path d="M3027 1529 c-34 -20 -49 -69 -50 -158 0 -139 36 -191 122 -177 45 7
67 29 80 81 24 94 8 206 -34 243 -28 24 -86 29 -118 11z"/>
<path d="M4147 1510 c-33 -38 -44 -122 -29 -209 12 -73 32 -99 83 -107 86 -14
122 38 122 176 0 127 -28 170 -111 170 -32 0 -45 -6 -65 -30z"/>
</g>
</svg>
