<svg xmlns="http://www.w3.org/2000/svg" width="168" height="164.063" viewBox="0 0 168 164.063">
  <g id="组_1185" data-name="组 1185" transform="translate(17873 20315)">
    <g id="Logo" transform="translate(-18125.24 -20060.809)">
      <g id="组_873" data-name="组 873" transform="translate(252.24 -254.191)">
        <rect id="矩形_878" data-name="矩形 878" width="168" height="164.063" transform="translate(0 0)" fill="#0f669b"/>
      </g>
      <g id="组_878" data-name="组 878" transform="translate(276.378 -231.517)">
        <g id="组_876" data-name="组 876" transform="translate(0.036 76.547)">
          <g id="组_874" data-name="组 874">
            <path id="路径_927" data-name="路径 927" d="M281.219-123.658h2.335v-14.388h-2.335v-.294h12.033v3.639h-.232a10.561,10.561,0,0,0-.588-1.441,3.99,3.99,0,0,0-.758-1.052,2.8,2.8,0,0,0-1.052-.641,4.545,4.545,0,0,0-1.473-.21h-3.491v6.5h1.367a4.727,4.727,0,0,0,1.178-.127,1.8,1.8,0,0,0,.831-.473,2.781,2.781,0,0,0,.589-.947,11.589,11.589,0,0,0,.474-1.546h.231v6.542H290.1c-.1-.406-.2-.8-.305-1.178a3.665,3.665,0,0,0-.442-1.009,2.087,2.087,0,0,0-.758-.7,2.52,2.52,0,0,0-1.23-.263h-1.7v7.594h3.975a3.484,3.484,0,0,0,1.925-.495,4.475,4.475,0,0,0,1.251-1.178,5.114,5.114,0,0,0,.716-1.42,7.516,7.516,0,0,0,.294-1.22h.231v4.607H281.219Z" transform="translate(-281.219 138.53)" fill="#fff"/>
            <path id="路径_928" data-name="路径 928" d="M306.151-138.568h3.429V-123.7H311.2v.294h-3.387v-1.83h-.042a5.808,5.808,0,0,1-.253.61,2.579,2.579,0,0,1-.494.694,2.91,2.91,0,0,1-.821.579,2.737,2.737,0,0,1-1.21.242,4,4,0,0,1-1.756-.4,4.9,4.9,0,0,1-1.462-1.073,5.182,5.182,0,0,1-1-1.547,4.669,4.669,0,0,1-.369-1.84,4.672,4.672,0,0,1,.358-1.809,4.849,4.849,0,0,1,.968-1.5,4.851,4.851,0,0,1,1.41-1.031,3.838,3.838,0,0,1,1.7-.39,2.918,2.918,0,0,1,1.872.568,3.074,3.074,0,0,1,1.009,1.388h.043v-7.53h-1.62Zm-3.639,10.349q0,1.094.063,1.988a5.079,5.079,0,0,0,.315,1.526,2.03,2.03,0,0,0,.757.967,2.429,2.429,0,0,0,1.368.337,2.412,2.412,0,0,0,1.42-.379,2.564,2.564,0,0,0,.831-.979,4.433,4.433,0,0,0,.4-1.336,10.157,10.157,0,0,0,.105-1.431q0-.82-.032-1.42a8.338,8.338,0,0,0-.116-1.062,3.593,3.593,0,0,0-.231-.8,3.493,3.493,0,0,0-.358-.631,2.494,2.494,0,0,0-.82-.694,2.685,2.685,0,0,0-1.283-.274,2.257,2.257,0,0,0-1.21.294,1.974,1.974,0,0,0-.737.842,4.42,4.42,0,0,0-.368,1.315A12.891,12.891,0,0,0,302.512-128.219Z" transform="translate(-283.906 138.568)" fill="#fff"/>
            <path id="路径_929" data-name="路径 929" d="M327-122.181h-3.387v-2.125h-.042a7.866,7.866,0,0,1-.453.852,3.421,3.421,0,0,1-.652.778,3.314,3.314,0,0,1-.9.568,3.053,3.053,0,0,1-1.21.221,4.116,4.116,0,0,1-1.367-.189,3.42,3.42,0,0,1-.82-.4,3.957,3.957,0,0,1-.326-.263,1.554,1.554,0,0,1-.326-.431,2.994,2.994,0,0,1-.252-.7,4.507,4.507,0,0,1-.106-1.062v-5.975h-1.619v-.294h3.429v6.458a6.454,6.454,0,0,0,.073,1.01,2.232,2.232,0,0,0,.285.81,1.567,1.567,0,0,0,.546.546,1.715,1.715,0,0,0,.884.2,1.967,1.967,0,0,0,.957-.274,3.1,3.1,0,0,0,.905-.778,4.5,4.5,0,0,0,.684-1.209,4.374,4.374,0,0,0,.273-1.588v-4.88h-1.6v-.294h3.408v8.73H327Z" transform="translate(-286.018 137.347)" fill="#fff"/>
            <path id="路径_930" data-name="路径 930" d="M340.338-124.549a6.08,6.08,0,0,1-.241.662,3.076,3.076,0,0,1-.568.863,3.427,3.427,0,0,1-1.052.757,3.9,3.9,0,0,1-1.714.326,5.893,5.893,0,0,1-1.662-.253,4.657,4.657,0,0,1-1.578-.81,4.183,4.183,0,0,1-1.168-1.462,4.961,4.961,0,0,1-.452-2.23,4.683,4.683,0,0,1,.39-1.914,4.911,4.911,0,0,1,1.051-1.535,4.8,4.8,0,0,1,1.557-1.02,4.952,4.952,0,0,1,1.9-.369,5.267,5.267,0,0,1,1.168.137,3.968,3.968,0,0,1,1.094.421,2.573,2.573,0,0,1,.82.736,1.838,1.838,0,0,1,.326,1.1.982.982,0,0,1-.284.726,1.1,1.1,0,0,1-.81.284,1.548,1.548,0,0,1-.683-.158.549.549,0,0,1-.326-.536,2.224,2.224,0,0,1,.148-.715,2.212,2.212,0,0,0,.146-.694.814.814,0,0,0-.484-.747,2.3,2.3,0,0,0-1.115-.264,4.219,4.219,0,0,0-.957.116,1.752,1.752,0,0,0-.905.578,3.56,3.56,0,0,0-.672,1.389,9.571,9.571,0,0,0-.263,2.524,11.839,11.839,0,0,0,.115,1.7,4.519,4.519,0,0,0,.421,1.4,2.4,2.4,0,0,0,.842.947,2.54,2.54,0,0,0,1.4.347,3.676,3.676,0,0,0,1.525-.274,2.809,2.809,0,0,0,.947-.662,2.874,2.874,0,0,0,.516-.789c.112-.266.2-.484.252-.652Z" transform="translate(-288.348 137.402)" fill="#fff"/>
            <path id="路径_931" data-name="路径 931" d="M354.005-122.466a2.9,2.9,0,0,1-.652.368,2.407,2.407,0,0,1-.926.158,2.068,2.068,0,0,1-1.461-.431,2.282,2.282,0,0,1-.621-1.21H350.3c-.056.126-.134.284-.231.473a1.878,1.878,0,0,1-.453.547,2.515,2.515,0,0,1-.809.442,3.921,3.921,0,0,1-1.284.179,4.056,4.056,0,0,1-1.409-.2,2.293,2.293,0,0,1-.82-.494,1.425,1.425,0,0,1-.389-.662,2.745,2.745,0,0,1-.094-.684,2.1,2.1,0,0,1,.294-1.178,2.188,2.188,0,0,1,.768-.7,5.105,5.105,0,0,1,1.052-.431q.578-.168,1.167-.357.694-.233,1.147-.4a2.024,2.024,0,0,0,.7-.41,1.261,1.261,0,0,0,.347-.611,4.16,4.16,0,0,0,.1-1,5.9,5.9,0,0,0-.064-.905,1.931,1.931,0,0,0-.231-.683,1.073,1.073,0,0,0-.484-.431,2.012,2.012,0,0,0-.842-.148,2.416,2.416,0,0,0-1.146.242.828.828,0,0,0-.453.789,3.891,3.891,0,0,0,.064.7,3.21,3.21,0,0,1,.063.515.658.658,0,0,1-.21.495.853.853,0,0,1-.61.2q-.695,0-.863-.253a1.151,1.151,0,0,1-.169-.652,1.956,1.956,0,0,1,.21-.883,2.229,2.229,0,0,1,.62-.747,3.1,3.1,0,0,1,1.031-.515,4.866,4.866,0,0,1,1.42-.189,4.708,4.708,0,0,1,1.62.242,2.808,2.808,0,0,1,1.051.652,2.382,2.382,0,0,1,.568.925,3.482,3.482,0,0,1,.169,1.084v5.238a1.273,1.273,0,0,0,.189.82.694.694,0,0,0,.546.211,1.529,1.529,0,0,0,.484-.084,1.757,1.757,0,0,0,.484-.253Zm-3.681-4.923h-.043q-.041.274-.693.546l-1.578.632a2.311,2.311,0,0,0-1.03.767,2.039,2.039,0,0,0-.358,1.23,3.557,3.557,0,0,0,.063.652,1.671,1.671,0,0,0,.232.6,1.29,1.29,0,0,0,.473.431,1.621,1.621,0,0,0,.789.168,1.958,1.958,0,0,0,1.126-.3,1.938,1.938,0,0,0,.651-.736,3.113,3.113,0,0,0,.294-.957,6.633,6.633,0,0,0,.073-.937Z" transform="translate(-290.152 137.402)" fill="#fff"/>
            <path id="路径_932" data-name="路径 932" d="M357.219-131.778h1.619v-2.714q.169.064.316.105a2.057,2.057,0,0,0,.5.042,1.812,1.812,0,0,0,.547-.074,1.357,1.357,0,0,0,.441-.242v2.882h2.987v.294h-2.987v6.879a3.251,3.251,0,0,0,.116.957,1.442,1.442,0,0,0,.3.568.9.9,0,0,0,.411.263,1.545,1.545,0,0,0,.431.063,1.482,1.482,0,0,0,1.189-.536,2.6,2.6,0,0,0,.578-1.23l.294.105a4.843,4.843,0,0,1-.19.61,2.134,2.134,0,0,1-.389.642,2.047,2.047,0,0,1-.684.5,2.443,2.443,0,0,1-1.051.2,3.11,3.11,0,0,1-2.2-.611,2.307,2.307,0,0,1-.621-1.724v-6.69h-1.619Z" transform="translate(-291.943 137.92)" fill="#fff"/>
            <path id="路径_933" data-name="路径 933" d="M366.775-123.671h1.62v-8.436h-1.62v-.294H370.2v8.73h1.62v.294h-5.049Zm1.368-13.631a1.077,1.077,0,0,1,.325-.789,1.078,1.078,0,0,1,.789-.326,1.074,1.074,0,0,1,.788.326,1.075,1.075,0,0,1,.327.789,1.075,1.075,0,0,1-.327.789,1.073,1.073,0,0,1-.788.325,1.077,1.077,0,0,1-.789-.325A1.077,1.077,0,0,1,368.143-137.3Z" transform="translate(-293.329 138.543)" fill="#fff"/>
            <path id="路径_934" data-name="路径 934" d="M375.55-126.736a4.134,4.134,0,0,1,.453-1.914,5.312,5.312,0,0,1,1.156-1.525,5.328,5.328,0,0,1,1.577-1,4.518,4.518,0,0,1,1.714-.358,4.518,4.518,0,0,1,1.715.358,5.339,5.339,0,0,1,1.578,1,5.335,5.335,0,0,1,1.157,1.525,4.145,4.145,0,0,1,.452,1.914,4.231,4.231,0,0,1-.42,1.861,5.231,5.231,0,0,1-1.1,1.525,5.247,5.247,0,0,1-1.568,1.031,4.559,4.559,0,0,1-1.809.379,4.56,4.56,0,0,1-1.809-.379,5.234,5.234,0,0,1-1.567-1.031,5.23,5.23,0,0,1-1.1-1.525A4.232,4.232,0,0,1,375.55-126.736Zm2.1,0a9.693,9.693,0,0,0,.232,2.377A3.635,3.635,0,0,0,378.5-123a1.747,1.747,0,0,0,.883.621,3.8,3.8,0,0,0,1.072.148,3.807,3.807,0,0,0,1.074-.148,1.753,1.753,0,0,0,.883-.621,3.645,3.645,0,0,0,.61-1.357,9.739,9.739,0,0,0,.231-2.377,11.141,11.141,0,0,0-.169-2.115,3.95,3.95,0,0,0-.515-1.388,2,2,0,0,0-.873-.767,3.067,3.067,0,0,0-1.242-.232,3.059,3.059,0,0,0-1.24.232,1.994,1.994,0,0,0-.874.767,3.983,3.983,0,0,0-.515,1.388A11.191,11.191,0,0,0,377.654-126.736Z" transform="translate(-294.025 137.402)" fill="#fff"/>
            <path id="路径_935" data-name="路径 935" d="M389.948-122.521h1.62v-8.436h-1.62v-.294h3.387V-129h.043q.126-.273.368-.694a3.644,3.644,0,0,1,.662-.82,3.746,3.746,0,0,1,1.052-.684,3.733,3.733,0,0,1,1.536-.284,3.6,3.6,0,0,1,2.262.673,2.54,2.54,0,0,1,.873,2.146v6.142h1.62v.294H396.7v-.294h1.619v-6.795a2.206,2.206,0,0,0-.389-1.346,1.406,1.406,0,0,0-1.21-.526,2.906,2.906,0,0,0-1.283.295,3.368,3.368,0,0,0-1.073.82,3.881,3.881,0,0,0-.726,1.241,4.46,4.46,0,0,0-.263,1.557v4.754H395v.294h-5.049Z" transform="translate(-296.412 137.393)" fill="#fff"/>
          </g>
          <g id="组_875" data-name="组 875" transform="translate(0 22.137)">
            <path id="路径_936" data-name="路径 936" d="M281.219-97.307h1.618v-8.423h-1.618v-.294h3.424v8.717h1.618v.294h-5.041Zm1.366-13.612a1.073,1.073,0,0,1,.325-.787,1.071,1.071,0,0,1,.788-.325,1.072,1.072,0,0,1,.788.325,1.073,1.073,0,0,1,.325.787,1.073,1.073,0,0,1-.325.787,1.073,1.073,0,0,1-.788.326,1.071,1.071,0,0,1-.788-.326A1.073,1.073,0,0,1,282.585-110.919Z" transform="translate(-281.219 112.032)" fill="#fff"/>
            <path id="路径_937" data-name="路径 937" d="M289.478-96.159H291.1v-8.423h-1.617v-.295h3.382v2.247h.042c.084-.181.206-.412.368-.693a3.652,3.652,0,0,1,.661-.818,3.689,3.689,0,0,1,1.05-.683,3.734,3.734,0,0,1,1.533-.284,3.6,3.6,0,0,1,2.258.672,2.537,2.537,0,0,1,.872,2.142v6.134h1.617v.294h-5.041v-.294h1.618v-6.785a2.2,2.2,0,0,0-.389-1.344,1.4,1.4,0,0,0-1.208-.525,2.909,2.909,0,0,0-1.281.294,3.369,3.369,0,0,0-1.071.819,3.872,3.872,0,0,0-.725,1.24,4.473,4.473,0,0,0-.263,1.554v4.747h1.617v.294h-5.041Z" transform="translate(-282.588 110.884)" fill="#fff"/>
            <path id="路径_938" data-name="路径 938" d="M313.651-97.295h2.332v-14.368h-2.332v-.295h4.727l3.886,11.3h.042l3.887-11.3h4.642v.295H328.5v14.368h2.332V-97H324.07v-.294H326.4v-14.242h-.042l-5.02,14.557-5-14.41H316.3v14.095h2.331V-97h-4.978Z" transform="translate(-285.64 112.02)" fill="#fff"/>
            <path id="路径_939" data-name="路径 939" d="M336.918-100.369a4.137,4.137,0,0,1,.452-1.912,5.311,5.311,0,0,1,1.154-1.522,5.314,5.314,0,0,1,1.576-1,4.481,4.481,0,0,1,1.712-.357,4.481,4.481,0,0,1,1.712.357,5.317,5.317,0,0,1,1.576,1,5.314,5.314,0,0,1,1.155,1.522,4.149,4.149,0,0,1,.451,1.912,4.22,4.22,0,0,1-.42,1.859,5.184,5.184,0,0,1-1.1,1.523,5.227,5.227,0,0,1-1.564,1.029,4.547,4.547,0,0,1-1.807.378,4.544,4.544,0,0,1-1.806-.378,5.223,5.223,0,0,1-1.565-1.029,5.189,5.189,0,0,1-1.1-1.523A4.222,4.222,0,0,1,336.918-100.369Zm2.1,0A9.671,9.671,0,0,0,339.25-98a3.639,3.639,0,0,0,.608,1.355,1.754,1.754,0,0,0,.882.62,3.8,3.8,0,0,0,1.071.147,3.8,3.8,0,0,0,1.072-.147,1.75,1.75,0,0,0,.882-.62A3.652,3.652,0,0,0,344.374-98a9.713,9.713,0,0,0,.231-2.373,11.158,11.158,0,0,0-.168-2.111,3.966,3.966,0,0,0-.514-1.386,1.992,1.992,0,0,0-.872-.767,3.068,3.068,0,0,0-1.24-.231,3.062,3.062,0,0,0-1.239.231,1.988,1.988,0,0,0-.872.767,3.954,3.954,0,0,0-.515,1.386A11.09,11.09,0,0,0,339.019-100.369Z" transform="translate(-288.95 110.892)" fill="#fff"/>
            <path id="路径_940" data-name="路径 940" d="M351.094-105.4h1.617v-2.709q.168.063.315.105a2.058,2.058,0,0,0,.5.042,1.794,1.794,0,0,0,.546-.073,1.362,1.362,0,0,0,.441-.242v2.878H357.5v.294h-2.983v6.869a3.267,3.267,0,0,0,.116.955,1.438,1.438,0,0,0,.3.567.914.914,0,0,0,.41.263,1.576,1.576,0,0,0,.431.063,1.474,1.474,0,0,0,1.186-.536,2.6,2.6,0,0,0,.578-1.229l.294.105a4.777,4.777,0,0,1-.189.609,2.125,2.125,0,0,1-.388.642,2.037,2.037,0,0,1-.683.5,2.438,2.438,0,0,1-1.05.2,3.1,3.1,0,0,1-2.195-.609,2.3,2.3,0,0,1-.62-1.723v-6.68h-1.617Z" transform="translate(-290.981 111.41)" fill="#fff"/>
            <path id="路径_941" data-name="路径 941" d="M360.637-97.307h1.618v-8.423h-1.618v-.294h3.424v8.717h1.617v.294h-5.041ZM362-110.919a1.073,1.073,0,0,1,.325-.787,1.071,1.071,0,0,1,.789-.325,1.072,1.072,0,0,1,.787.325,1.076,1.076,0,0,1,.325.787,1.076,1.076,0,0,1-.325.787,1.073,1.073,0,0,1-.787.326,1.072,1.072,0,0,1-.789-.326A1.073,1.073,0,0,1,362-110.919Z" transform="translate(-292.352 112.032)" fill="#fff"/>
            <path id="路径_942" data-name="路径 942" d="M369.4-100.369a4.14,4.14,0,0,1,.451-1.912,5.321,5.321,0,0,1,1.155-1.522,5.325,5.325,0,0,1,1.576-1,4.484,4.484,0,0,1,1.712-.357,4.488,4.488,0,0,1,1.713.357,5.323,5.323,0,0,1,1.575,1,5.313,5.313,0,0,1,1.155,1.522,4.15,4.15,0,0,1,.451,1.912,4.231,4.231,0,0,1-.42,1.859,5.22,5.22,0,0,1-1.1,1.523,5.245,5.245,0,0,1-1.565,1.029,4.548,4.548,0,0,1-1.807.378,4.544,4.544,0,0,1-1.806-.378,5.23,5.23,0,0,1-1.565-1.029,5.2,5.2,0,0,1-1.1-1.523A4.219,4.219,0,0,1,369.4-100.369Zm2.1,0A9.674,9.674,0,0,0,371.732-98a3.636,3.636,0,0,0,.608,1.355,1.753,1.753,0,0,0,.882.62,3.794,3.794,0,0,0,1.071.147,3.8,3.8,0,0,0,1.072-.147,1.749,1.749,0,0,0,.882-.62A3.636,3.636,0,0,0,376.856-98a9.709,9.709,0,0,0,.231-2.373,11.167,11.167,0,0,0-.168-2.111,3.971,3.971,0,0,0-.515-1.386,1.991,1.991,0,0,0-.872-.767,3.069,3.069,0,0,0-1.24-.231,3.062,3.062,0,0,0-1.239.231,1.985,1.985,0,0,0-.872.767,3.951,3.951,0,0,0-.515,1.386A11.1,11.1,0,0,0,371.5-100.369Z" transform="translate(-293.005 110.892)" fill="#fff"/>
            <path id="路径_943" data-name="路径 943" d="M383.778-96.159H385.4v-8.423h-1.617v-.295h3.382v2.247h.042c.084-.181.206-.412.368-.693a3.633,3.633,0,0,1,.661-.818,3.689,3.689,0,0,1,1.05-.683,3.731,3.731,0,0,1,1.533-.284,3.6,3.6,0,0,1,2.258.672,2.538,2.538,0,0,1,.872,2.142v6.134h1.618v.294h-5.041v-.294h1.617v-6.785a2.2,2.2,0,0,0-.388-1.344,1.4,1.4,0,0,0-1.208-.525,2.91,2.91,0,0,0-1.281.294,3.362,3.362,0,0,0-1.071.819,3.873,3.873,0,0,0-.725,1.24,4.469,4.469,0,0,0-.263,1.554v4.747h1.618v.294h-5.041Z" transform="translate(-295.389 110.884)" fill="#fff"/>
          </g>
        </g>
        <rect id="矩形_879" data-name="矩形 879" width="119.705" height="0.583" transform="translate(0.019 116.771)" fill="#fff"/>
        <rect id="矩形_880" data-name="矩形 880" width="119.709" height="0.582" transform="translate(0.014 94.988)" fill="#fff"/>
        <rect id="矩形_881" data-name="矩形 881" width="119.723" height="0.583" transform="translate(0 72.22)" fill="#fff"/>
        <g id="组_877" data-name="组 877" transform="translate(0.018 0)">
          <path id="路径_944" data-name="路径 944" d="M281.2-225.278v60.049h14.33v-60.049Z" transform="translate(-281.198 226.724)" fill="#fff"/>
          <path id="路径_945" data-name="路径 945" d="M404.1-225.268v60.05h14.35v-60.05Z" transform="translate(-298.74 226.722)" fill="#fff"/>
          <path id="路径_946" data-name="路径 946" d="M352.1-161.783V-204.64H338.426v42.857Z" transform="translate(-289.375 223.302)" fill="#fff"/>
          <path id="路径_947" data-name="路径 947" d="M352.437-219.7a7.207,7.207,0,0,0-7.278-7.314,7.177,7.177,0,0,0-7.248,7.337,7.052,7.052,0,0,0,7.2,7.2A7.088,7.088,0,0,0,352.437-219.7Z" transform="translate(-289.291 227.011)" fill="#fff"/>
          <path id="路径_948" data-name="路径 948" d="M326.288-157.827v-22.962c-.1.408-.164.636-.2.869a32.926,32.926,0,0,1-4.4,12.078,20.529,20.529,0,0,1-9.592,8.5c-1.524.638-3.143,1.049-4.57,1.514Z" transform="translate(-284.928 219.348)" fill="#fff"/>
          <path id="路径_949" data-name="路径 949" d="M323.807-203.99v-21.265h-16.7a18.458,18.458,0,0,1,11.661,8.414A33.7,33.7,0,0,1,323.1-206.9C323.344-205.972,323.551-205.036,323.807-203.99Z" transform="translate(-284.883 226.72)" fill="#fff"/>
          <path id="路径_950" data-name="路径 950" d="M312.549-179.29v-27.2c-.335,1.238-.62,2.549-1.048,3.812a15.8,15.8,0,0,1-4.955,7.655,10.712,10.712,0,0,1-4.519,2.033c4.19.9,6.646,3.587,8.378,7.092A26.961,26.961,0,0,1,312.549-179.29Z" transform="translate(-284.651 223.609)" fill="#fff"/>
          <path id="路径_951" data-name="路径 951" d="M281.2-225.278h14.33v60.049H281.2Z" transform="translate(-281.198 226.724)" fill="#fff"/>
          <path id="路径_952" data-name="路径 952" d="M404.1-225.268h14.35v60.05H404.1Z" transform="translate(-298.74 226.722)" fill="#fff"/>
          <path id="路径_953" data-name="路径 953" d="M359.909-225.3h15.963l14.571,37.72s-4.6,15.28-6.846,22.685c-.042.138-.105.269-.206.524C375.547-184.724,367.746-204.968,359.909-225.3Z" transform="translate(-292.093 226.728)" fill="#fff"/>
          <path id="路径_954" data-name="路径 954" d="M352.1-161.783H338.426V-204.64H352.1Z" transform="translate(-289.375 223.302)" fill="#fff"/>
          <path id="路径_955" data-name="路径 955" d="M352.437-219.7a7.088,7.088,0,0,1-7.322,7.218,7.052,7.052,0,0,1-7.2-7.2,7.177,7.177,0,0,1,7.248-7.337A7.207,7.207,0,0,1,352.437-219.7Z" transform="translate(-289.291 227.011)" fill="#fff"/>
          <path id="路径_956" data-name="路径 956" d="M326.288-157.827H307.522c1.426-.466,3.046-.876,4.57-1.514a20.529,20.529,0,0,0,9.592-8.5,32.926,32.926,0,0,0,4.4-12.078c.039-.234.108-.461.2-.869Z" transform="translate(-284.928 219.348)" fill="#fff"/>
          <path id="路径_957" data-name="路径 957" d="M323.807-203.99c-.255-1.046-.463-1.982-.711-2.907a33.7,33.7,0,0,0-4.324-9.944,18.458,18.458,0,0,0-11.661-8.414h16.7Z" transform="translate(-284.883 226.72)" fill="#fff"/>
          <path id="路径_958" data-name="路径 958" d="M312.549-179.29A26.961,26.961,0,0,0,310.4-185.9c-1.732-3.5-4.188-6.189-8.378-7.092a10.712,10.712,0,0,0,4.519-2.033,15.8,15.8,0,0,0,4.955-7.655c.428-1.263.713-2.574,1.048-3.812Z" transform="translate(-284.651 223.609)" fill="#fff"/>
        </g>
      </g>
    </g>
  </g>
</svg>
