<svg viewBox="0 0 97.49 27.49" xmlns="http://www.w3.org/2000/svg"><path d="m2 0a2 2 0 0 1 1.44.59 2 2 0 0 1 .56 1.41 1.9 1.9 0 0 1 -.6 1.41 1.93 1.93 0 0 1 -1.4.59 1.94 1.94 0 0 1 -1.42-.6 1.94 1.94 0 0 1 -.58-1.4 2 2 0 0 1 .59-1.41 2 2 0 0 1 1.41-.59zm-1.21 7.83h2.46v19h-2.46zm40.68-2.38-2 1.89a15.18 15.18 0 0 0 -4.71-3.21 12.65 12.65 0 0 0 -5-1.09 11.94 11.94 0 0 0 -5.76 1.49 10.88 10.88 0 0 0 -4.24 4 10.44 10.44 0 0 0 -1.5 5.38 10.58 10.58 0 0 0 1.56 5.51 11 11 0 0 0 4.3 4.11 12.31 12.31 0 0 0 6 1.49 10.29 10.29 0 0 0 6.71-2.23 8.86 8.86 0 0 0 3.28-5.79h-8.2v-2.48h11.09q0 6-3.54 9.47a12.68 12.68 0 0 1 -9.37 3.5q-7.14 0-11.29-4.86a12.91 12.91 0 0 1 -3.21-8.63 13.23 13.23 0 0 1 1.84-6.8 13.14 13.14 0 0 1 5-4.92 14.67 14.67 0 0 1 7.26-1.79 16 16 0 0 1 6.15 1.18 18.45 18.45 0 0 1 5.63 3.78zm39.17 0-2 1.89a15.25 15.25 0 0 0 -4.7-3.21 12.65 12.65 0 0 0 -4.94-1.13 11.89 11.89 0 0 0 -5.76 1.49 10.75 10.75 0 0 0 -4.24 4 10.44 10.44 0 0 0 -1.5 5.38 10.66 10.66 0 0 0 1.5 5.57 11.11 11.11 0 0 0 4.3 4.11 12.31 12.31 0 0 0 6 1.49 10.25 10.25 0 0 0 6.7-2.23 8.82 8.82 0 0 0 3.27-5.81h-8.19v-2.48h11.08c0 4-1.2 7.13-3.54 9.47a12.7 12.7 0 0 1 -9.38 3.5 14.1 14.1 0 0 1 -11.24-4.86 12.92 12.92 0 0 1 -3.24-8.63 13.32 13.32 0 0 1 1.83-6.8 13.14 13.14 0 0 1 5-4.92 14.73 14.73 0 0 1 7.27-1.79 16 16 0 0 1 6.14 1.18 18.57 18.57 0 0 1 5.63 3.78zm14.82-5.45a2 2 0 0 1 1.43.59 2 2 0 0 1 .6 1.41 1.9 1.9 0 0 1 -.6 1.41 2 2 0 0 1 -2.85 0 1.93 1.93 0 0 1 -.59-1.41 2 2 0 0 1 .55-1.4 1.94 1.94 0 0 1 1.46-.6zm-1.22 7.83h2.46v19h-2.47v-19z" fill="#222"/></svg>